<?xml version="1.0" encoding="UTF-8" standalone="no"?>
<svg
   xmlns:dc="http://purl.org/dc/elements/1.1/"
   xmlns:cc="http://creativecommons.org/ns#"
   xmlns:rdf="http://www.w3.org/1999/02/22-rdf-syntax-ns#"
   xmlns:svg="http://www.w3.org/2000/svg"
   xmlns="http://www.w3.org/2000/svg"
   xmlns:sodipodi="http://sodipodi.sourceforge.net/DTD/sodipodi-0.dtd"
   xmlns:inkscape="http://www.inkscape.org/namespaces/inkscape"
   version="1.1"
   x="0px"
   y="0px"
   viewBox="0 0 505 295"
   enable-background="new 0 0 100 100"
   xml:space="preserve"
   id="svg2"
   inkscape:version="0.91 r13725"
   sodipodi:docname="icon.svg"
   width="505"
   height="295"
   inkscape:export-filename="/home/glefur/Perso/repositories/glefur.github.io/images/osgi-jee.png"
   inkscape:export-xdpi="300"
   inkscape:export-ydpi="300"><metadata
     id="metadata28"><rdf:RDF><cc:Work
         rdf:about=""><dc:format>image/svg+xml</dc:format><dc:type
           rdf:resource="http://purl.org/dc/dcmitype/StillImage" /><dc:title /></cc:Work></rdf:RDF></metadata><defs
     id="defs26" /><sodipodi:namedview
     pagecolor="#ffffff"
     bordercolor="#666666"
     borderopacity="1"
     objecttolerance="10"
     gridtolerance="10"
     guidetolerance="10"
     inkscape:pageopacity="0"
     inkscape:pageshadow="2"
     inkscape:window-width="1366"
     inkscape:window-height="713"
     id="namedview24"
     showgrid="false"
     inkscape:zoom="0.70710678"
     inkscape:cx="225.01731"
     inkscape:cy="42.931208"
     inkscape:window-x="0"
     inkscape:window-y="27"
     inkscape:window-maximized="1"
     inkscape:current-layer="svg2" /><rect
     style="color:#000000;display:inline;overflow:visible;visibility:visible;opacity:1;fill:#ffffff;fill-opacity:1;fill-rule:nonzero;stroke:none;stroke-width:7;stroke-linecap:butt;stroke-linejoin:miter;stroke-miterlimit:4;stroke-dasharray:none;stroke-dashoffset:0;stroke-opacity:1;marker:none;enable-background:accumulate"
     id="rect4149"
     width="506.28845"
     height="296.98486"
     x="0"
     y="-0.57063502" /><g
     id="g4334"
     transform="matrix(2.5905965,0,0,2.5905965,274.27295,-4.7381322)"><polygon
       transform="translate(-57.935,6.8550002)"
       id="polygon4252"
       points="82.1,74 74,65.9 74,65.9 82.1,74 75,81.1 75,81.1 " /><rect
       id="rect4254"
       height="9.8000002"
       width="0"
       y="58.355"
       x="6.5650001" /><path
       style="fill:#2c5aa0"
       id="path4256"
       d="m 3.165,59.755 0,0 0,0 -4.9,4.9 c 2.5,1.2 4.3,3.8 4.3,6.9 0,4.2 -3.4,7.6 -7.6,7.6 -3,0 -5.6,-1.8 -6.9,-4.3 l -5.9,5.9 -0.1,0.1 21,21 8.1,-8.1 0,0 c -3.2,0 -5.9,-2.6 -5.9,-5.9 0,-3.3 2.6,-5.9 5.9,-5.9 3.2,0 5.9,2.6 5.9,5.9 l 7.1,-7.1 -8.1,-8 0,0 -0.6,-0.6 c 0.1,0 0.3,0 0.4,0 3.2,0 5.9,-2.6 5.9,-5.9 0,-1.5 -0.6,-2.8 -1.5,-3.9 -1,-0.9 -2.4,-1.5 -3.9,-1.5 -3.2,0 -5.9,2.6 -5.9,5.9 0,0.1 0,0.3 0,0.4 l -0.4,-0.4 0,0 -6.9,-7 z"
       inkscape:connector-curvature="0" /><path
       style="fill:#d45500"
       id="path4258"
       d="m -11.435,56.355 c -4.2,0 -7.6,-3.4 -7.6,-7.6 0,-3 1.7,-5.6 4.2,-6.8 l -5.9,-5.9 0,0 -21,21 22.2,22.2 9.5,-9.5 c -0.3,0.6 -0.4,1.3 -0.4,2 0,2.9 2.4,5.3 5.3,5.3 2.9,0 5.3,-2.4 5.3,-5.3 0,-2.9 -2.4,-5.3 -5.3,-5.3 -0.7,0 -1.4,0.1 -2,0.4 l 8.6,-8.6 -6,-6 c -1.3,2.3 -3.9,4.1 -6.9,4.1 z"
       inkscape:connector-curvature="0" /><path
       style="fill:#2c5aa0;fill-opacity:1"
       id="path4260"
       d="m 25.365,34.255 -8.7,-8.7 c 0.1,0 0.3,0 0.4,0 3.2,0 5.9,-2.6 5.9,-5.9 0,-3.2 -2.6,-5.8 -5.9,-5.8 -3.2,0 -5.9,2.6 -5.9,5.9 0,0.1 0,0.3 0,0.4 l -8.1,-8.1 -21,21 -0.7,0.8 -0.4,0.4 9.5,9.5 c -0.6,-0.2 -1.2,-0.3 -1.8,-0.3 -2.9,0 -5.3,2.4 -5.3,5.3 0,2.9 2.4,5.3 5.3,5.3 2.9,0 5.3,-2.4 5.3,-5.3 0,-0.5 -0.1,-0.9 -0.2,-1.4 0,-0.2 -0.1,-0.3 -0.1,-0.5 l 0.5,0.5 9.2,9.2 0.4,-0.4 0.8,-0.8 6.8,-6.8 c 0,0 0,0 0,0 -3.2,0 -5.9,-2.6 -5.9,-5.9 0,-3.3 2.6,-5.9 5.9,-5.9 3.2,0 5.9,2.6 5.9,5.9 0,0 0,0 0,0 l 8.1,-8.4 z"
       inkscape:connector-curvature="0" /><rect
       id="rect4262"
       height="0"
       width="0"
       y="59.755001"
       x="3.1649985" /><rect
       id="rect4264"
       height="0"
       width="0"
       y="59.755001"
       x="3.1649985" /><path
       id="path4266"
       d="m -6.335,47.355 0.3,0 -0.4,-0.5 c 0,0.1 0,0.3 0.1,0.5 z"
       inkscape:connector-curvature="0" /><rect
       id="rect6"
       height="9.8000002"
       width="0"
       y="51.5"
       x="64.5" /><rect
       id="rect14"
       height="0"
       width="0"
       y="52.900002"
       x="61.099998" /><rect
       id="rect16"
       height="0"
       width="0"
       y="52.900002"
       x="61.099998" /><text
       transform="matrix(0.70710678,0.70710678,-0.70710678,0.70710678,0,0)"
       sodipodi:linespacing="125%"
       id="text4287"
       y="60.478699"
       x="11.994317"
       style="font-style:normal;font-weight:normal;font-size:14px;line-height:125%;font-family:Sans;letter-spacing:0px;word-spacing:0px;fill:#ffffff;fill-opacity:1;stroke:none;stroke-width:1px;stroke-linecap:butt;stroke-linejoin:miter;stroke-opacity:1"
       xml:space="preserve"><tspan
         style="font-style:normal;font-variant:normal;font-weight:bold;font-stretch:condensed;font-family:'Liberation Sans Narrow';-inkscape-font-specification:'Liberation Sans Narrow Bold Condensed';fill:#ffffff"
         y="60.478699"
         x="11.994317"
         id="tspan4289"
         sodipodi:role="line">OSGi</tspan></text>
<text
       transform="matrix(0.70710678,0.70710678,-0.70710678,0.70710678,0,0)"
       sodipodi:linespacing="125%"
       id="text4291-4"
       y="56.64695"
       x="59.117207"
       style="font-style:normal;font-weight:normal;font-size:7.5px;line-height:125%;font-family:Sans;text-align:center;letter-spacing:0px;word-spacing:0px;text-anchor:middle;fill:#ffffff;fill-opacity:1;stroke:none;stroke-width:1px;stroke-linecap:butt;stroke-linejoin:miter;stroke-opacity:1"
       xml:space="preserve"><tspan
         id="tspan4295-2"
         y="56.64695"
         x="59.117207"
         sodipodi:role="line">EE</tspan></text>
<path
       sodipodi:nodetypes="csssssssscssccsccccccccccssssccssscssscccscccsssccssssssscsscsssssssssscsssccsscsssssccccsssssssssscscssssssssscsss"
       inkscape:connector-curvature="0"
       id="path4227-8"
       d="m -8.6647752,33.741038 c -0.478196,-0.739539 -0.588412,-1.00329 -0.419254,-1.003291 0.09588,0 0.330695,0.244626 0.787108,0.819974 0.838826,1.057424 3.806171,4.028473 4.972225,4.978448 1.805503,1.470905 3.818671,2.682865 4.78664,2.881639 0.797428,0.163753 0.605233,0.437837 -0.295404,0.421269 -1.190217,-0.0219 -2.773863,-0.960078 -4.609966,-2.731032 -1.069242,-1.031299 -1.107676,-1.075885 -0.389627,-0.451924 2.2228,1.931546 4.094277,3.034174 5.101036,3.005406 l 0.384792,-0.011 -0.424897,-0.08369 c -0.470079,-0.09259 -1.714846,-0.725609 -2.647516,-1.346374 -1.459882,-0.971666 -2.501184,-1.865841 -4.554754,-3.911207 -1.111833,-1.107449 -2.021585,-1.996977 -2.0216,-1.976798 -1.5e-5,0.02018 0.351335,0.435905 0.780783,0.92383 l 0.780815,0.887136 -0.942753,-0.934551 c -0.595378,-0.590146 -1.069848,-1.131055 -1.287616,-1.467848 z m 0.388237,0.131184 c 0,-0.04302 -0.05354,-0.101152 -0.118984,-0.129166 -0.0723,-0.03098 -0.07231,-2.97e-4 0,0.07822 0.06542,0.07107 0.118962,0.09399 0.118962,0.05097 z m 0.782685,-0.186471 c -0.90401,-1.020428 -2.492632,-3.065679 -2.7483188,-3.538285 -0.188609,-0.348624 -0.234106,-0.772842 -0.09753,-0.909417 0.4372418,-0.437242 2.3306768,0.297858 3.2604398,1.26582 0.34836,0.362672 0.370887,0.403216 0.140571,0.253001 l -0.274265,-0.178877 0.24479,0.273089 c 0.221584,0.247209 0.188343,0.237501 -0.35073,-0.102413 -0.702956,-0.443249 -1.329941,-0.676834 -1.462076,-0.544699 -0.129941,0.129942 0.283667,0.878927 1.072533,1.942193 0.900237,1.213383 4.33187,4.643153 5.841573,5.838462 2.200225,1.741956 3.085092,2.223147 3.438421,1.869818 0.226974,-0.226973 0.336943,-0.15859 0.325672,0.202509 -0.0092,0.296122 -0.02761,0.321805 -0.281703,0.39402 -1.305097,0.370901 -5.638618,-2.847432 -9.109404,-6.76519 z m 2.575904,-0.727429 c -1.053541,-1.517974 -0.993019,-2.625749 0.123665,-2.263541 0.501195,0.162569 0.626028,0.29656 0.420209,0.451038 0.192709,1.226376 1.994193,2.842447 3.211476,3.674622 l 0.58788903,0.38313 0.24444397,0.694208 c 0.134445,0.381814 0.206208,0.732445 0.159474,0.77918 -0.11209,0.112089 -1.337587,-0.525104 -2.186256,-1.136737 -0.828844,-0.597342 -2.009988,-1.788199 -2.560872,-2.58193 z m 1.725713,-1.819306 c -0.958838,-1.162828 -1.377476,-2.060234 -1.166397,-2.500315 0.137824,-0.287351 0.515756,-0.327733 1.077555,-0.115138 0.391103,0.148001 0.626254,0.44663 0.351692,0.446629 -0.08311,0 -0.202184,0.05107 -0.264598,0.11348 -0.184749,0.184749 0.139948,0.649874 1.362877,1.952309 0.97219403,1.035395 1.30875103,1.340175 2.344001,2.122688 l 1.208818,0.913704 0.07857,0.411202 c 0.04321,0.226161 0.100845,0.455751 0.128071,0.510202 0.02722,0.05445 -0.01133,0.126091 -0.08566,0.159202 -0.145002,0.06458 -1.296858,-0.626866 -2.207121,-1.324901 -0.793789,-0.608717 -2.269662,-2.012179 -2.827804,-2.689062 z m 5.313565,4.928921 c 0.03403,-0.03403 0.380753,0.02186 0.770488,0.124202 2.270084,0.596127 3.822562,-0.08697 3.424469,-1.506783 -0.09442,-0.336748 -0.178898,-0.454268 -0.532799,-0.741189 -0.349617,-0.283446 -0.403809,-0.357763 -0.32117,-0.440402 0.295155,-0.295155 1.517167,0.730387 1.758437,1.475723 0.504144,1.557404 -0.794039,2.632873 -2.710572,2.245551 -1.061544,-0.214534 -2.590722,-0.955233 -2.388853,-1.157102 z m -5.43161,-8.745273 c -0.82213,-1.10866 -0.995958,-1.64787 -0.566634,-1.757686 0.265164,-0.06783 1.332548,0.3226 2.081009,0.761189 0.65662,0.384773 1.83727,1.331831 1.400909,1.12374 l -0.21916097,-0.104511 0.15290497,0.170767 c 0.09218,0.102931 -0.13738497,0.02395 -0.577954,-0.198861 -0.81211,-0.410715 -1.341487,-0.600551 -1.429439,-0.512599 -0.03193,0.03193 0.01252,0.205963 0.09876,0.386745 0.117472,0.246236 0.621258,0.789934 2.008131,2.167252 1.601639,1.590608 2.052636,1.993579 3.34408,2.988039 1.710724,1.317317 1.62025,1.239947 1.541757,1.31844 -0.09424,0.09424 -1.081124,-0.21479 -1.495998,-0.468453 -0.206504,-0.126261 -0.888744,-0.626037 -1.51609,-1.110614 -1.369469,-1.057809 -4.004619,-3.660807 -4.822287,-4.763441 z m 5.179322,3.300915 c 0.0377,-0.0377 0.0814,-0.01414 0.0971,0.05237 0.01749,0.0741 0.03939,0.07497 0.05656,0.0022 0.01541,-0.06527 0.185351,-0.14226 0.377647,-0.171081 0.269869,-0.04044 0.435075,-0.137842 0.724171,-0.426938 0.349169,-0.349169 0.380272,-0.422274 0.459141,-1.079287 0.275325,-2.293551 1.480998,-3.256468 3.723055,-2.97344 1.182352,0.149255 3.7767112,1.174262 3.7767102,1.492143 0,0.08942 -0.09569,0.108556 -0.297586,0.05951 -2.095533,-0.509081 -3.5929232,-0.66322 -4.2801632,-0.440591 -0.686905,0.222518 -0.929938,0.63258 -1.167643,1.970117 -0.225835,1.270749 -0.756542,1.788433 -1.908658,1.86182 -0.918705,0.05852 -1.775303,-0.131905 -1.560338,-0.346864 z m -0.223184,-2.707827 c 0.02093,-2.100689 0.249777,-3.018729 0.917377,-3.68017 0.655794,-0.649713 1.633545,-0.756735 4.285237,-0.468975 2.4166412,0.262252 3.2848852,0.183016 4.2733032,-0.389985 0.349074,-0.202364 0.606391,-0.423976 0.886899,-0.763834 0.330313,-0.400204 0.41122,-0.462698 0.493053,-0.380864 0.05385,0.05385 0.02767,0.30441 -0.05816,0.556814 -0.128863,0.378934 -0.258455,0.56131 -0.743555,1.04641 -0.56389,0.56389 -0.621961,0.599121 -1.44551,0.876925 -0.724619,0.244434 -1.061273,0.288714 -2.1653482,0.284807 -0.71903,-0.0025 -1.749446,-0.03037 -2.289814,-0.06185 -1.684945,-0.09814 -2.644134,0.358232 -3.14615,1.4969 -0.109135,0.24753 -0.302837,1.002371 -0.430455,1.677419 -0.228279,1.2075 -0.33956,1.500245 -0.506739,1.333066 -0.04648,-0.04648 -0.07803,-0.733471 -0.07014,-1.526664 z"
       style="fill:#ffffff;fill-opacity:1" /></g></svg>